<svg width="187" height="107" viewBox="0 0 187 107" fill="none" xmlns="http://www.w3.org/2000/svg">
<g id="Group">
<g id="Group_2">
<path id="Vector" d="M28.3716 53.2889C22.712 33.0098 50.2303 13.0238 76.4924 0L24.4734 6.07586C5.35794 19.9217 -4.38028 38.5638 1.90011 52.7885C8.4837 67.7065 30.6744 73.1247 55.3268 67.3634C42.2246 67.3634 31.2952 63.7965 28.3716 53.2889Z" fill="black"/>
<path id="Vector_2" d="M63.2617 51.4727C58.851 55.0896 51.0402 60.1147 46.1025 61.3155C54.3681 63.4385 65.3913 62.0518 76.299 56.7694C84.3985 52.8451 91.0976 47.4268 95.7465 41.5654L69.6071 45.6613C67.6797 47.6484 65.5573 49.5927 63.2617 51.4727Z" fill="black"/>
</g>
<g id="Group_3">
<path id="Vector_3" d="M16.18 95.8483C15.8046 96.0913 14.4403 96.899 12.5345 96.899C9.50258 96.899 7.54628 94.6617 7.54628 91.202C7.54628 87.3849 9.14886 85.4478 12.3107 85.4478C14.036 85.4478 15.5809 86.277 16.014 86.5272L16.1223 86.5915L16.4038 82.2669L16.411 82.2097L16.3605 82.1883C14.9312 81.6022 13.3574 81.3091 11.6827 81.3091C5.74156 81.3091 2.05273 85.0547 2.05273 91.0876C2.05273 97.3851 5.66216 101.138 11.7115 101.138C13.2203 101.138 14.8662 100.881 16.4688 100.402L16.5265 100.387L16.2955 95.7768L16.18 95.8483Z" fill="black"/>
<path id="Vector_4" d="M27.9323 80.4946H23.4927L22.1211 84.6262H25.0736L27.9323 80.4946Z" fill="black"/>
<path id="Vector_5" d="M24.2069 86.1343C19.5796 86.1343 17.4717 89.9871 17.4717 93.5683C17.4717 95.2409 17.8254 97.5855 19.5002 99.2367C20.7851 100.502 22.6259 101.138 24.9721 101.138C24.9937 101.138 25.0154 101.138 25.0298 101.138C27.2821 101.109 29.1518 100.609 30.0613 100.316L30.1191 100.302L30.0036 96.8349V96.7206L29.8953 96.7635C28.1484 97.514 26.7912 97.8714 25.7445 97.8714C23.5716 97.8714 22.3949 96.9279 22.2506 95.0551H30.8843V93.5897C30.8915 90.1515 29.1446 86.1343 24.2069 86.1343ZM22.1423 92.346C22.1639 90.4517 22.9869 89.2866 24.2935 89.2866C25.6651 89.2866 26.2281 90.08 26.2281 92.0171V92.346H22.1423Z" fill="black"/>
<path id="Vector_6" d="M41.4162 86.5271C41.3079 87.199 41.243 87.9996 41.2285 88.6358C40.3912 86.9774 39.0845 86.1411 37.3448 86.1411C33.7859 86.1411 31.9307 89.6723 31.9307 93.1677C31.9307 98.1713 33.8292 100.823 37.4314 100.823C39.1639 100.823 40.5427 99.8797 41.2358 98.2142V99.0005C41.2358 101.888 40.0519 103.175 37.4098 103.175C35.2946 103.175 33.8725 102.36 33.0207 101.874L32.9124 101.81L32.7392 105.884L32.7897 105.906C33.5477 106.241 36.0887 106.863 38.2183 106.863C43.5819 106.863 46.0868 104.354 46.0868 98.9647V89.8653C46.0868 88.3999 46.1807 87.2705 46.2529 86.5486L46.2601 86.4628H41.4523L41.4162 86.5271ZM40.9542 93.5394C40.9542 95.8839 40.6438 97.335 39.1062 97.335C37.5686 97.335 37.2582 95.741 37.2582 93.3535C37.2582 90.9518 37.814 89.8367 38.9979 89.8367C40.2901 89.8295 40.9542 91.0804 40.9542 93.5394Z" fill="black"/>
<path id="Vector_7" d="M54.2752 86.1343C49.6479 86.1343 47.54 89.9871 47.54 93.5683C47.54 95.2409 47.8938 97.5855 49.5685 99.2367C50.8535 100.502 52.6943 101.138 55.0404 101.138C55.0621 101.138 55.0837 101.138 55.0982 101.138C57.3505 101.109 59.2201 100.609 60.1297 100.316L60.1875 100.302L60.072 96.8349V96.7206L59.9637 96.7635C58.2167 97.514 56.8596 97.8714 55.8128 97.8714C53.64 97.8714 52.4633 96.9279 52.3189 95.0551H60.9527V93.5897C60.9599 90.1515 59.2057 86.1343 54.2752 86.1343ZM52.2034 92.346C52.2251 90.4517 53.048 89.2866 54.3546 89.2866C55.7262 89.2866 56.2893 90.08 56.2893 92.0171V92.346H52.2034Z" fill="black"/>
<path id="Vector_8" d="M71.1233 86.1343C69.4702 86.1343 68.2935 86.8705 67.3479 88.5217C67.3406 87.957 67.2901 87.3923 67.2396 86.892L67.2035 86.4631H62.2441L62.2658 86.556C62.3452 86.9206 62.4318 87.7998 62.4318 88.8863V106.706H67.5428V101.095C67.5428 100.123 67.4995 99.3225 67.4489 98.7721C68.5173 100.416 69.6001 101.038 71.3688 101.038C74.9421 101.038 76.5663 97.3282 76.5663 93.8756C76.5663 88.9506 74.5811 86.1343 71.1233 86.1343ZM71.2388 93.6469C71.2388 96.306 70.6541 97.5497 69.3908 97.5497C68.2502 97.5497 67.5428 96.0558 67.5428 93.6469C67.5428 91.2594 68.3296 89.7155 69.5568 89.7155C70.6685 89.7226 71.2388 91.045 71.2388 93.6469Z" fill="black"/>
<path id="Vector_9" d="M90.0095 81.6377H84.6748V100.809H96.3405V96.7845H90.0095V81.6377Z" fill="black"/>
<path id="Vector_10" d="M102.64 80.2153H97.5293V84.4613H102.64V80.2153Z" fill="black"/>
<path id="Vector_11" d="M102.64 86.4556H97.5293V100.809H102.64V86.4556Z" fill="black"/>
<path id="Vector_12" d="M121.689 86.1343C119.833 86.1343 118.433 86.8848 117.408 88.4217C116.643 86.8634 115.387 86.1343 113.459 86.1343C110.882 86.1343 109.828 87.7354 109.438 88.6433C109.431 88.1071 109.417 87.1207 109.33 86.5274L109.323 86.4631H104.508L104.522 86.556C104.602 86.9992 104.688 88.1357 104.688 89.5939V100.816H109.799V92.9464C109.799 91.6526 110.247 90.273 111.51 90.273C112.391 90.273 112.781 90.8734 112.781 92.2101V100.816H117.892V92.539C117.892 91.5025 118.18 90.273 119.545 90.273C120.461 90.273 120.873 90.8734 120.873 92.2101V100.816H125.984V90.5446C125.977 87.7783 124.374 86.1343 121.689 86.1343Z" fill="black"/>
<path id="Vector_13" d="M134.666 86.1343C132.212 86.1343 130.328 86.9063 129.079 88.4288C128.018 89.7226 127.462 91.5239 127.462 93.6469C127.462 95.8985 128.162 101.138 134.666 101.138C141.17 101.138 141.871 95.8985 141.871 93.6469C141.871 91.5239 141.308 89.7226 140.254 88.4288C139.005 86.9063 137.128 86.1343 134.666 86.1343ZM134.666 97.657C133.006 97.657 132.789 95.5125 132.789 93.6469C132.789 91.767 133.006 89.6082 134.666 89.6082C136.327 89.6082 136.543 91.767 136.543 93.6469C136.543 95.5125 136.334 97.657 134.666 97.657Z" fill="black"/>
<path id="Vector_14" d="M148.674 86.4556H143.563V100.809H148.674V86.4556Z" fill="black"/>
<path id="Vector_15" d="M148.674 80.2153H143.563V84.4613H148.674V80.2153Z" fill="black"/>
<path id="Vector_16" d="M156.054 80.2153H150.943V100.809H156.054V80.2153Z" fill="black"/>
<path id="Vector_17" d="M164.945 86.1343C162.49 86.1343 160.606 86.9063 159.357 88.4288C158.296 89.7226 157.74 91.5239 157.74 93.6469C157.74 95.8985 158.44 101.138 164.945 101.138C171.449 101.138 172.149 95.8985 172.149 93.6469C172.149 91.5239 171.586 89.7226 170.532 88.4288C169.283 86.9063 167.406 86.1343 164.945 86.1343ZM164.945 97.657C163.284 97.657 163.068 95.5125 163.068 93.6469C163.068 91.767 163.284 89.6082 164.945 89.6082C166.605 89.6082 166.822 91.767 166.822 93.6469C166.822 95.5125 166.612 97.657 164.945 97.657Z" fill="black"/>
<path id="Vector_18" d="M186.993 100.716C186.914 100.351 186.827 99.4651 186.827 98.3857V86.4556H181.716V94.733C181.716 95.7695 181.428 96.999 180.063 96.999C179.146 96.999 178.735 96.3985 178.735 95.0618V86.4556H173.624V96.4772C173.624 99.3936 175.277 101.131 178.049 101.131C180.619 101.131 181.68 99.5294 182.07 98.6216C182.077 99.1577 182.092 100.144 182.178 100.737L182.186 100.802H187.001L186.993 100.716Z" fill="black"/>
</g>
</g>
</svg>
